# xmcd
#
# Track frame offsets: 
#        150
#        26777
#        52306
#        80129
#        107260
#        131511
#        152305
#        178346
#        203429
#        229940
#
# Disc length: 3317 seconds
#
# Revision: 0
# Processed by: cddbd v1.5.2PL0 Copyright (c) Steve Scherf et al.
# Submitted via: ExactAudioCopy v1.0b3
#
DISCID=800cf30a
DTITLE=Ngoc Son - Tinh Ca Viet Nam
DYEAR=2003
DGENRE=
TTITLE0=Chiec vong cau hon
TTITLE1=Thuyen va bien
TTITLE2=Giua Mac Tu Khoa nghe cau ho vi dam
TTITLE3=Mot khuc tam tinh cua nguoi Ha Tinh
TTITLE4=Hue tinh yeu cua toi
TTITLE5=Dat nuoc
TTITLE6=Em oi Ha Noi pho
TTITLE7=Tinh ca
TTITLE8=Chieu tren ben cang
TTITLE9=Co gai Sai Gon di tai dan
EXTD=
EXTT0=
EXTT1=
EXTT2=
EXTT3=
EXTT4=
EXTT5=
EXTT6=
EXTT7=
EXTT8=
EXTT9=
PLAYORDER=
